<?xml version="1.0" encoding="UTF-8"?>
<svg id="Icon" xmlns="http://www.w3.org/2000/svg" viewBox="0 0 48 48">
  <path id="favicon" d="M26.22,44.49s0,0,0,0h0ZM47.27,31.44c.01,1.42-.69,2.75-1.71,3.66-.08.98-.58,1.89-1.25,2.56-1.3,1.11-2.57,2.3-3.89,3.46-.91.68-1.91,1.08-3.03,1.28-1.67.23-.55-.12-1.91.97-.84.66-1.79,1.08-2.84,1.28-.37.07-.77.1-1.17.09-1.75-.06-3.5-.15-5.25-.26-.79-.05-1.56-.25-2.27-.59-.71.34-1.49.54-2.27.59-1.81.12-3.63.21-5.46.26-.67,0-1.31-.12-1.89-.32-1.1-.38-2.06-1.05-2.79-1.95-1.12-.03-2.13-.31-3.1-.79-.36-.18-.73-.42-1.07-.68-1.22-1.12-2.43-2.22-3.65-3.27-.77-.68-1.31-1.67-1.38-2.74-.64-.61-1.16-1.38-1.41-2.26-.4-1.35-.12-2.92.64-4.09-.07-.3-.1-.6-.1-.89.42-3.19,1.32-6.47,1.9-9.64.13-.59.37-1.14.69-1.63-.06-.29-.09-.6-.09-.9-.02-.29.05-.7.09-.9.22-1.14.44-2.28.65-3.42.36-1.78,1.59-3.27,3.11-4.14.45-.27,1.01-.5,1.48-.64,2.95-.92,6.34-2.32,9.5-2.4,1.09-.07,2.1-.09,3.02-.13.66-.03,1.41.08,2.03.32.08.04.16.06.24.01.58-.22,1.19-.33,1.83-.33,2.15.09,4.43.07,6.71.63,1.47.37,2.72.8,4.06,1.26,0,0,.73-.84.73-.84.37-.42.87-.67,1.42-.72.5-.64,1.26-1.03,2.07-1.03,2.16-.02,3.3,2.59,1.9,4.21,0,0-.09.1-.09.1.04.53-.12,1.05-.44,1.47.27.38.51.8.7,1.27.13.31.23.65.3,1.01.21,1.09.44,2.34.64,3.35.06.3.09.61.09.92,0,.3-.03.61-.09.9.11.17.22.36.32.55.16.33.29.7.38,1.08.6,2.9,1.21,5.81,1.81,8.74.12.57.13,1.2,0,1.79.53.81.82,1.81.83,2.79ZM36.57,7.83c-2.56,2.94-5.27,6.04-7.83,8.97,0,0-1.01,1.15-1.01,1.15l-.46.31-.2.13c.12-.13-6.11,7-8.25,9.45-.68.78-1.47,1.68-2.08,2.38-1.45,1.72-1.41,1.42-2.16,2.82-.21.43-.36.89-.46,1.35-.02.21-.08.65-.1.9-.03.3-.07.59-.1.87-.03.23-.04.3,0,.49,0,.03.01.05.01.05l-.07.04-.3.4s-.08.11-.08.11l-.02.02s-.02.03-.03.04c-.21.3-.08.76.27.89.23.09.5.03.68-.16.13-.14.32-.33.44-.46,0,0,.02-.02.02-.02v-.03s.02-.04.02-.04c.03,0,.05,0,.08,0,.22.04.67-.15,1.17-.28.54-.16,1.06-.27,1.51-.52.72-.37,1.38-.88,1.9-1.5.27-.32.96-1.17,1.33-1.62,1.18-1.44,2.36-2.87,3.54-4.31,1.96-2.39,4.6-5.6,6.36-7.75,0,0,.33-.73.33-.73,0,0,.69-.84.69-.84,2.04-2.48,4.22-5.14,6.26-7.63.66-.81,1.56-1.9,2.23-2.71,0,0,1.06-1.29,1.06-1.29.06-.07.11-.15.14-.24.07-.18.11-.39.02-.57-.04-.08-.1-.15-.14-.22.02-.01.03-.02.05-.02.02,0,.03-.01.05-.03l.46-.54c.05-.05.09-.11.12-.17.37-.59.24-1.42-.35-1.82-.57-.39-1.36-.27-1.81.27,0,0-.46.54-.46.54-.03.03-.02.07-.03.1-.07-.03-.14-.07-.21-.09-.17-.07-.36-.02-.52.06-.2.07-.54.52-.69.68,0,0-1.38,1.58-1.38,1.58ZM42.29,36.86c.68-.57,1.35-1.11,1.35-2.09.01-.64-.3-.44.24-.79.82-.58,1.47-1.49,1.46-2.54,0-.93-.45-1.86-1.12-2.46.25-.35.39-.79.39-1.22-.5-3.09-1.27-6.15-1.86-9.22-.14-.65-.52-1.24-1-1.65.41-.65.42-1.46.24-2.17-.2-1.02-.39-2.04-.58-3.06-.08-.38-.21-.72-.38-1.04-.53.64-1.32,1.61-1.84,2.25.17.89.34,1.78.51,2.67,0,.07.02.09-.02.15-.12.15-.37.23-.57.22-.79,0-1.59-.02-2.38-.03-.54.65-1.43,1.75-1.96,2.39,1.43,0,2.88.04,4.33.05.48.01,1.18.25,1.32.75.56,2.74,1.14,5.47,1.7,8.2.02.09.04.19.06.28.03.07,0,.09-.08.1-.17.05-.43.06-.6.03-2.51-.39-4.99-.9-7.4-1.67-.88-.28-1.46-1.31-1.3-2.21.07-1.13.13-2.25.19-3.38l-.84,1.02c-.05.13-.28.62-.33.73-.48.59-.96,1.17-1.45,1.77-.03.87-.53,1.74-1.15,2.37-.58.55-1.29.93-1.93,1.39-.94,1.14-1.83,2.23-2.75,3.35-.58.71-1.19,1.45-1.75,2.13.06.32.02,1.4.03,1.74.01.45-.47.7-.86.81-.34.1-.65.05-.98.03-.1,0-.19-.01-.29-.02-.06.07-.21.26-.21.25-.79.93-1.82,1.66-2.96,2.1,1.75.13,3.5.15,5.24.16-.01.36.03.74-.02,1.09-.13.44-.63.69-1.07.79-1.78.17-3.58.21-5.37.29-.68.02-1.41-.45-1.61-1.1-.89.41-2.05-.05-2.4-.98-.16-.48.02-.17-.59-.18-.54-.01-1.14-.18-1.57-.51-.72-.66-1.45-1.32-2.19-1.98,1.23.46,2.48.92,3.73,1.34.88.31.37.19.86-.45,0,0,.18-.24.18-.24h0c.02-.17.04-.34.05-.49.05-.43.09-.85.14-1.21-.73-.2-1.46-.43-2.2-.67-1.07-.34-2.13-.71-3.22-1.06-.71-.22-1.46-.43-2.04-.92-.33-.28-.47-.49-.24-.91.34-.56,1.09-.89,1.72-1,2.63-.41,5.28-.96,7.89-1.79.64-.17,1.44-.19,2.1-.03.29-.33.56-.64.86-.99,1.32-1.61.98-.51.21-2.14-.17-.37-.28-.76-.31-1.09-.09-1.47-.17-2.95-.25-4.42-.06-.52,0-1.04.28-1.53.23-.42.53-.8.95-.98,1.3-.57,2.6-1.16,3.9-1.75.45-.19,1-.29,1.51-.29.53,0,1.07.1,1.52.33.68.31,1.35.62,2.03.92.41-.47,1.25-1.43,1.66-1.9-.83-.37-1.65-.74-2.47-1.12-.42-.17-.82-.42-1.1-.8-.27-.35-.47-.79-.47-1.21,0,0,0-2.38,0-2.38,0-.11.03-.19.09-.28.14-.21.43-.33.69-.31.38.02.75.03,1.12.04,2.25.03,4.41.29,6.52,1.05.42-.48,1.29-1.49,1.72-1.97-1.02-.35-2.06-.69-3.15-.96-2.03-.5-4.1-.49-6.1-.57-.75-.03-1.49.19-2.09.64-.6-.45-1.35-.67-2.09-.64-.96.04-1.95.06-2.97.12-3.11.1-6.16,1.44-9.08,2.32-1.07.32-2.07,1.02-2.7,1.98-.26.39-.46.85-.56,1.35-.21,1.31-.57,2.62-.7,3.92,0,.45.13.92.36,1.3-.3.26-.55.57-.74.93-.12.22-.21.47-.26.73-.56,2.73-1.14,5.47-1.7,8.21-.19.74-.28,1.5.18,2.16.02.03.03.05.05.07-.11.1-.21.21-.31.33-.35.41-.61.91-.72,1.45-.27,1.01.13,2.12.88,2.81.23.23.47.41.73.59-.19.51-.11,1.12.17,1.58.12.21.27.39.44.55,1.21,1.05,2.39,2.12,3.59,3.21.55.45,1.21.73,1.91.91.66.16,1.38.22,2.06.06.1.22.22.43.36.62.79,1.1,2.12,1.79,3.48,1.74,1.9-.09,3.81-.11,5.7-.32.68-.13,1.33-.42,1.87-.86.55.45,1.19.73,1.87.86,1.89.22,3.81.24,5.71.33.86,0,1.7-.26,2.42-.72.61-.4,1.12-.92,1.44-1.61.28.06.56.09.84.09,1.08-.01,2.16-.35,3.03-.99,1.02-.91,2.02-1.84,3.04-2.73ZM33.26,39.07c-.03-.42-.07-.87-.1-1.27-1.32.19-2.65.3-3.98.36-1.35.06-2.68.07-4.02.08,0,.21,0,.43,0,.64,0,.18-.02.38.06.55.23.46.83.69,1.33.72,1.69.11,3.38.2,5.08.25.69-.03,1.72-.54,1.65-1.34ZM37.42,36.61c-.63.22-1.25.43-1.88.64.07.6-.09.91.69.92.48,0,1.07-.17,1.48-.44.65-.56,1.27-1.15,1.91-1.72.12-.11.24-.22.36-.33-.85.31-1.7.63-2.56.93ZM5.95,27.63c.17.04.41.05.58.03,2.42-.38,4.83-.87,7.16-1.59.5-.12.97-.47,1.26-.91.3-.42.34-.87.28-1.36-.09-1.51-.18-3.03-.26-4.54-.03-.56-.59-1.03-1.14-1.01-1.63,0-3.24.04-4.89.05-.48.01-1.17.24-1.32.75-.56,2.75-1.14,5.49-1.71,8.24-.02.08-.03.16-.05.24-.03.08,0,.1.09.11ZM39.07,18.3s0,0,0,0c0,0,0,0,0,0ZM8.32,15.62c.11.18.39.26.59.26,1.64-.01,3.26-.05,4.91-.05,2.63-.07,5.01-1.57,7.4-2.56.82-.3,1.52-1.1,1.57-1.98,0-.03,0-2.38,0-2.41,0-.05,0-.09-.02-.13-.08-.31-.45-.48-.76-.47-.38.02-.75.03-1.12.04-1.51.05-3.07.11-4.51.46-.95.23-1.9.54-2.87.87-.97.33-1.96.67-2.99.98-.67.2-1.4.76-1.57,1.46-.21,1.14-.43,2.28-.65,3.41,0,.04-.01.07,0,.11ZM42.92,31.39c-.11-.8-1.13-1.22-1.83-1.35-2.65-.42-5.28-.96-7.88-1.79-.31-.09-.68-.14-1.05-.14-.37,0-.76.05-1.11.15-.29.08-.56.19-.79.32-1.17.78-2.33,1.59-3.52,2.36-.67.43-1.18,1.18-1.41,1.93-.19.49-.1,1.48-.12,1.99.03.65.8,1,1.38.93,2.5-.17,5-.29,7.41-.89,2.16-.53,4.28-1.29,6.41-1.98.69-.23,1.44-.42,2.03-.86.21-.17.51-.38.48-.66Z"/>
</svg>